<svg xmlns="http://www.w3.org/2000/svg" version="1.1" xmlns:xlink="http://www.w3.org/1999/xlink" viewBox="0 0 16.99460979487009 5.78706218744821"><g transform="matrix(1,0,0,1,5.384764166201173,1.8965748437241052)"><g clip-path="url(#SvgjsClipPath1001)"><g clip-path="url(#SvgjsClipPath1000b8729670-deb1-4e0d-8515-19dda67d23cc)"><path d=" M -2.5800499211150902 2.0869812105575454 C -2.5800499211150902 2.6399332324073965 -3.0283060111847617 3.088189322477067 -3.5812580330346124 3.088189322477067 C -4.134210054884464 3.088189322477067 -4.582466144954135 2.6399332324073965 -4.582466144954135 2.0869812105575454 C -4.582466144954135 1.5340291887076931 -4.134210054884464 1.0857730986380225 -3.5812580330346124 1.0857730986380225 C -3.0283060111847617 1.0857730986380225 -2.5800499211150902 1.5340291887076931 -2.5800499211150902 2.0869812105575454 Z" fill="#ffc632" transform="matrix(1,0,0,1,0,0)" fill-rule="nonzero"></path></g><g clip-path="url(#SvgjsClipPath1000b8729670-deb1-4e0d-8515-19dda67d23cc)"><path d=" M -3.5097431678975037 1.0880800297714772 C -2.757683618391134 1.1434463769744003 -2.1048221076233355 0.5782482492778958 -2.0494557604204124 -0.17150436909501865 L -1.3227724533820489 0.5551789379433443 C -2.0748320028884186 0.6105452851462674 -2.637723199451468 1.2634067959140662 -2.582356852248545 2.0154663454204353 L -3.5097431678975037 1.0880800297714772 Z" fill="#ffc632" transform="matrix(1,0,0,1,0,0)" fill-rule="nonzero"></path></g><g clip-path="url(#SvgjsClipPath1000b8729670-deb1-4e0d-8515-19dda67d23cc)"><path d=" M -0.6952871850822562 -0.12075188415900606 C -0.6952871850822562 0.2538285177392796 -0.9989445364197755 0.5574858690767992 -1.3735249383180617 0.5574858690767992 C -1.7481053402163478 0.5574858690767992 -2.051762691553867 0.2538285177392796 -2.051762691553867 -0.12075188415900606 C -2.051762691553867 -0.4953322860572926 -1.7481053402163478 -0.7989896373948118 -1.3735249383180617 -0.7989896373948118 C -0.9989445364197755 -0.7989896373948118 -0.6952871850822562 -0.4953322860572926 -0.6952871850822562 -0.12075188415900606 Z" fill="#ffc632" transform="matrix(1,0,0,1,0,0)" fill-rule="nonzero"></path></g><g clip-path="url(#SvgjsClipPath1000b8729670-deb1-4e0d-8515-19dda67d23cc)"><path d=" M -3.5097431678975037 1.0880800297714772 C -2.757683618391134 1.1434463769744003 -2.1048221076233355 0.5782482492778958 -2.0494557604204124 -0.17150436909501865 L -1.3227724533820489 0.5551789379433443 C -2.0748320028884186 0.6105452851462674 -2.637723199451468 1.2634067959140662 -2.582356852248545 2.0154663454204353 L -3.5097431678975037 1.0880800297714772 Z" fill="#ffc632" transform="matrix(1,0,0,1,0,0)" fill-rule="nonzero"></path></g><g clip-path="url(#SvgjsClipPath1000b8729670-deb1-4e0d-8515-19dda67d23cc)"><path d=" M -3.611248137769529 0.34524820479892826 C -4.010347223857265 0.34524820479892826 -4.331010651407527 0.02227784611521111 -4.331010651407527 -0.37451430883906955 C -4.331010651407527 -0.7713064637933504 -4.00804029272381 -1.0942768224770674 -3.611248137769529 -1.0942768224770674 C -3.214455982815249 -1.0942768224770674 -2.8914856241315317 -0.7736133949268054 -2.8914856241315317 -0.37451430883906955 C -2.8914856241315317 0.02458477724866648 -3.214455982815249 0.34524820479892826 -3.611248137769529 0.34524820479892826 Z" fill="#a4cb6a" transform="matrix(1,0,0,1,0,0)" fill-rule="nonzero"></path></g><g clip-path="url(#SvgjsClipPath1000b8729670-deb1-4e0d-8515-19dda67d23cc)"><path d=" M -0.40000000000000036 2.116971315292461 C -0.40000000000000036 2.5144852111845193 -0.7222486177459393 2.836733828930459 -1.119762513637998 2.836733828930459 C -1.5172764095300568 2.836733828930459 -1.8395250272759958 2.5144852111845193 -1.8395250272759958 2.116971315292461 C -1.8395250272759958 1.719457419400402 -1.5172764095300568 1.3972088016544635 -1.119762513637998 1.3972088016544635 C -0.7222486177459393 1.3972088016544635 -0.40000000000000036 1.719457419400402 -0.40000000000000036 2.116971315292461 Z" fill="#ff6b00" transform="matrix(1,0,0,1,0,0)" fill-rule="nonzero"></path></g></g><g><path d=" M 0.705 0.35849999999999993 Q 0.705 0.36149999999999993 0.69675 0.3629999999999999 Q 0.6885 0.36449999999999994 0.687 0.3599999999999999 Q 0.651 0.18899999999999995 0.47850000000000004 0.18899999999999995 L 0.4185 0.18899999999999995 Q 0.3645 0.18899999999999995 0.342 0.2084999999999999 Q 0.3195 0.22799999999999987 0.3195 0.2729999999999999 L 0.3195 0.5984999999999999 L 0.4425 0.5984999999999999 Q 0.6105 0.5984999999999999 0.6105 0.4859999999999999 Q 0.6105 0.4829999999999999 0.6195 0.4829999999999999 Q 0.6285000000000001 0.4829999999999999 0.6285000000000001 0.4859999999999999 L 0.627 0.6179999999999999 Q 0.627 0.6644999999999999 0.6285000000000001 0.6869999999999998 L 0.63 0.7649999999999999 Q 0.63 0.7694999999999999 0.621 0.7694999999999999 Q 0.612 0.7694999999999999 0.612 0.7649999999999999 Q 0.612 0.6375 0.4395 0.6375 L 0.3195 0.6375 L 0.3195 0.96 Q 0.3195 1.008 0.3315 1.02975 Q 0.3435 1.0514999999999999 0.37875000000000003 1.0605 Q 0.41400000000000003 1.0695 0.4875 1.0695 Q 0.4905 1.0695 0.4905 1.0785 Q 0.4905 1.0875 0.4875 1.0875 Q 0.426 1.0875 0.3915 1.0859999999999999 L 0.2445 1.0845 L 0.135 1.0859999999999999 Q 0.1065 1.0875 0.0555 1.0875 Q 0.051000000000000004 1.0875 0.051000000000000004 1.0785 Q 0.051000000000000004 1.0695 0.0555 1.0695 Q 0.1095 1.0695 0.13425 1.0619999999999998 Q 0.159 1.0545 0.168 1.0327499999999998 Q 0.177 1.011 0.177 0.966 L 0.177 0.27149999999999985 Q 0.177 0.22649999999999992 0.16875 0.2054999999999999 Q 0.1605 0.1844999999999999 0.1365 0.1762499999999999 Q 0.1125 0.16799999999999993 0.063 0.16799999999999993 Q 0.0585 0.16799999999999993 0.0585 0.15899999999999992 Q 0.0585 0.1499999999999999 0.063 0.1499999999999999 L 0.687 0.1499999999999999 Q 0.7020000000000001 0.1499999999999999 0.7020000000000001 0.16349999999999987 L 0.705 0.35849999999999993 M 1.873508056640625 1.0785 Q 1.873508056640625 1.0875 1.8690080566406249 1.0875 Q 1.818008056640625 1.0875 1.786508056640625 1.0859999999999999 L 1.677008056640625 1.0845 L 1.549508056640625 1.0859999999999999 Q 1.5225080566406248 1.0875 1.477508056640625 1.0875 Q 1.473008056640625 1.0875 1.473008056640625 1.0785 Q 1.473008056640625 1.0695 1.477508056640625 1.0695 Q 1.5345080566406248 1.0695 1.560008056640625 1.0619999999999998 Q 1.585508056640625 1.0545 1.594508056640625 1.0334999999999999 Q 1.603508056640625 1.0125 1.603508056640625 0.966 L 1.603508056640625 0.6194999999999999 L 1.0890080566406248 0.6194999999999999 L 1.0890080566406248 0.966 Q 1.0890080566406248 1.011 1.098008056640625 1.0327499999999998 Q 1.107008056640625 1.0545 1.133258056640625 1.0619999999999998 Q 1.1595080566406248 1.0695 1.216508056640625 1.0695 Q 1.219508056640625 1.0695 1.219508056640625 1.0785 Q 1.219508056640625 1.0875 1.216508056640625 1.0875 Q 1.165508056640625 1.0875 1.1370080566406249 1.0859999999999999 L 1.012508056640625 1.0845 L 0.9030080566406249 1.0859999999999999 Q 0.8745080566406249 1.0875 0.823508056640625 1.0875 Q 0.820508056640625 1.0875 0.820508056640625 1.0785 Q 0.820508056640625 1.0695 0.823508056640625 1.0695 Q 0.8775080566406249 1.0695 0.9030080566406249 1.0619999999999998 Q 0.928508056640625 1.0545 0.937508056640625 1.0327499999999998 Q 0.946508056640625 1.011 0.946508056640625 0.966 L 0.946508056640625 0.27149999999999985 Q 0.946508056640625 0.22649999999999992 0.937508056640625 0.2054999999999999 Q 0.928508056640625 0.1844999999999999 0.9030080566406249 0.1762499999999999 Q 0.8775080566406249 0.16799999999999993 0.8250080566406249 0.16799999999999993 Q 0.8220080566406249 0.16799999999999993 0.8220080566406249 0.15899999999999992 Q 0.8220080566406249 0.1499999999999999 0.8250080566406249 0.1499999999999999 L 0.904508056640625 0.15149999999999986 Q 0.9735080566406249 0.15449999999999986 1.012508056640625 0.15449999999999986 Q 1.0650080566406248 0.15449999999999986 1.1370080566406249 0.15149999999999986 L 1.216508056640625 0.1499999999999999 Q 1.219508056640625 0.1499999999999999 1.219508056640625 0.15899999999999992 Q 1.219508056640625 0.16799999999999993 1.216508056640625 0.16799999999999993 Q 1.161008056640625 0.16799999999999993 1.134758056640625 0.17699999999999994 Q 1.108508056640625 0.18599999999999994 1.098758056640625 0.20774999999999988 Q 1.0890080566406248 0.22949999999999993 1.0890080566406248 0.27449999999999986 L 1.0890080566406248 0.5804999999999999 L 1.603508056640625 0.5804999999999999 L 1.603508056640625 0.27449999999999986 Q 1.603508056640625 0.22949999999999993 1.594508056640625 0.20774999999999988 Q 1.585508056640625 0.18599999999999994 1.559258056640625 0.17699999999999994 Q 1.533008056640625 0.16799999999999993 1.477508056640625 0.16799999999999993 Q 1.473008056640625 0.16799999999999993 1.473008056640625 0.15899999999999992 Q 1.473008056640625 0.1499999999999999 1.477508056640625 0.1499999999999999 L 1.549508056640625 0.15149999999999986 Q 1.621508056640625 0.15449999999999986 1.677008056640625 0.15449999999999986 Q 1.7175080566406251 0.15449999999999986 1.786508056640625 0.15149999999999986 L 1.8690080566406249 0.1499999999999999 Q 1.873508056640625 0.1499999999999999 1.873508056640625 0.15899999999999992 Q 1.873508056640625 0.16799999999999993 1.8690080566406249 0.16799999999999993 Q 1.815008056640625 0.16799999999999993 1.790258056640625 0.1762499999999999 Q 1.765508056640625 0.1844999999999999 1.7565080566406248 0.2054999999999999 Q 1.747508056640625 0.22649999999999992 1.747508056640625 0.27149999999999985 L 1.747508056640625 0.966 Q 1.747508056640625 1.011 1.7565080566406248 1.0327499999999998 Q 1.765508056640625 1.0545 1.790258056640625 1.0619999999999998 Q 1.815008056640625 1.0695 1.8690080566406249 1.0695 Q 1.873508056640625 1.0695 1.873508056640625 1.0785 M 3.6420571289062496 0.15899999999999992 Q 3.6420571289062496 0.16799999999999993 3.63905712890625 0.16799999999999993 Q 3.58355712890625 0.16799999999999993 3.53480712890625 0.2084999999999999 Q 3.48605712890625 0.2489999999999999 3.46505712890625 0.3254999999999999 L 3.2490571289062498 1.0859999999999999 Q 3.2490571289062498 1.0919999999999999 3.23255712890625 1.0919999999999999 Q 3.21755712890625 1.0919999999999999 3.21605712890625 1.0859999999999999 L 2.92655712890625 0.3689999999999999 L 2.70305712890625 1.0859999999999999 Q 2.70305712890625 1.0919999999999999 2.6865571289062498 1.0919999999999999 Q 2.6730571289062497 1.0919999999999999 2.66855712890625 1.0859999999999999 L 2.38955712890625 0.27449999999999986 Q 2.3670571289062496 0.2114999999999999 2.34155712890625 0.18974999999999986 Q 2.31605712890625 0.16799999999999993 2.27105712890625 0.16799999999999993 Q 2.26655712890625 0.16799999999999993 2.26655712890625 0.15899999999999992 Q 2.26655712890625 0.1499999999999999 2.27105712890625 0.1499999999999999 L 2.3100571289062497 0.15149999999999986 Q 2.3430571289062496 0.15449999999999986 2.38505712890625 0.15449999999999986 Q 2.48105712890625 0.15449999999999986 2.5680571289062497 0.15149999999999986 Q 2.59355712890625 0.1499999999999999 2.6280571289062498 0.1499999999999999 Q 2.63105712890625 0.1499999999999999 2.63105712890625 0.15899999999999992 Q 2.63105712890625 0.16799999999999993 2.6280571289062498 0.16799999999999993 Q 2.53655712890625 0.16799999999999993 2.53655712890625 0.23399999999999987 Q 2.53655712890625 0.25949999999999984 2.54705712890625 0.2909999999999999 L 2.73755712890625 0.8474999999999999 L 2.9550571289062497 0.1499999999999999 Q 2.95955712890625 0.14549999999999985 2.97305712890625 0.14549999999999985 Q 2.9880571289062496 0.14549999999999985 2.9895571289062497 0.1499999999999999 L 3.27455712890625 0.8534999999999999 L 3.42005712890625 0.32999999999999985 Q 3.4305571289062495 0.2879999999999999 3.4305571289062495 0.26549999999999985 Q 3.4305571289062495 0.16799999999999993 3.30605712890625 0.16799999999999993 Q 3.30305712890625 0.16799999999999993 3.30305712890625 0.15899999999999992 Q 3.30305712890625 0.1499999999999999 3.30605712890625 0.1499999999999999 L 3.3870571289062497 0.15149999999999986 Q 3.4590571289062497 0.15449999999999986 3.5055571289062497 0.15449999999999986 Q 3.53555712890625 0.15449999999999986 3.5745571289062497 0.15149999999999986 L 3.63905712890625 0.1499999999999999 Q 3.6420571289062496 0.1499999999999999 3.6420571289062496 0.15899999999999992 M 4.087590087890625 0.9929999999999999 Q 4.090590087890625 0.9929999999999999 4.094340087890624 0.9989999999999999 Q 4.098090087890625 1.005 4.0950900878906245 1.008 Q 4.041090087890625 1.059 3.9855900878906247 1.08225 Q 3.930090087890625 1.1055 3.8640900878906246 1.1055 Q 3.7710900878906246 1.1055 3.7043400878906247 1.06575 Q 3.637590087890625 1.0259999999999998 3.602340087890625 0.9592499999999999 Q 3.567090087890625 0.8924999999999998 3.567090087890625 0.8159999999999998 Q 3.567090087890625 0.7274999999999999 3.6113400878906248 0.6539999999999999 Q 3.6555900878906247 0.5804999999999999 3.732840087890625 0.53775 Q 3.8100900878906248 0.4949999999999999 3.9030900878906247 0.4949999999999999 Q 3.991590087890625 0.4949999999999999 4.039590087890625 0.53475 Q 4.087590087890625 0.5744999999999999 4.087590087890625 0.6435 Q 4.087590087890625 0.6839999999999999 4.071090087890624 0.6839999999999999 L 3.988590087890625 0.6839999999999999 L 3.706590087890625 0.6869999999999998 Q 3.7020900878906247 0.7184999999999999 3.7020900878906247 0.7545 Q 3.7020900878906247 0.8849999999999999 3.7628400878906247 0.9622499999999999 Q 3.823590087890625 1.0394999999999999 3.931590087890625 1.0394999999999999 Q 3.9705900878906246 1.0394999999999999 4.011090087890625 1.0282499999999999 Q 4.051590087890625 1.017 4.084590087890625 0.9944999999999999 L 4.087590087890625 0.9929999999999999 M 3.7635900878906248 0.5609999999999999 Q 3.7275900878906247 0.597 3.7125900878906246 0.6599999999999999 L 3.9465900878906246 0.6555 Q 3.943590087890625 0.5939999999999999 3.919590087890625 0.5594999999999999 Q 3.895590087890625 0.5249999999999999 3.849090087890625 0.5249999999999999 Q 3.799590087890625 0.5249999999999999 3.7635900878906248 0.5609999999999999 M 4.73480712890625 0.5204999999999999 Q 4.79105712890625 0.5519999999999999 4.82480712890625 0.6149999999999999 Q 4.8585571289062495 0.6779999999999999 4.8585571289062495 0.7679999999999999 Q 4.8585571289062495 0.8759999999999999 4.8128071289062495 0.9524999999999999 Q 4.7670571289062496 1.029 4.692057128906249 1.0679999999999998 Q 4.61705712890625 1.107 4.53305712890625 1.107 Q 4.41605712890625 1.107 4.32305712890625 1.0379999999999998 L 4.19555712890625 1.0964999999999998 L 4.19255712890625 1.0964999999999998 Q 4.18655712890625 1.0964999999999998 4.18505712890625 1.0912499999999998 Q 4.18355712890625 1.0859999999999999 4.18805712890625 1.083 Q 4.22855712890625 1.0574999999999999 4.247307128906249 1.02375 Q 4.26605712890625 0.9899999999999999 4.26605712890625 0.9329999999999999 L 4.26605712890625 0.1994999999999999 Q 4.26605712890625 0.1469999999999999 4.25555712890625 0.12374999999999992 Q 4.245057128906249 0.10049999999999992 4.21955712890625 0.10049999999999992 Q 4.201557128906249 0.10049999999999992 4.16105712890625 0.11849999999999994 L 4.15955712890625 0.11849999999999994 Q 4.153557128906249 0.11849999999999994 4.150557128906249 0.11099999999999988 Q 4.14755712890625 0.10349999999999993 4.150557128906249 0.10049999999999992 L 4.35905712890625 0.0014999999999998348 L 4.3665571289062495 -2.220446049250313e-16 Q 4.37255712890625 -2.220446049250313e-16 4.38005712890625 0.005999999999999783 Q 4.387557128906249 0.011999999999999789 4.387557128906249 0.01649999999999996 L 4.387557128906249 0.5999999999999999 Q 4.4370571289062495 0.5489999999999999 4.49105712890625 0.5189999999999999 Q 4.54505712890625 0.4889999999999999 4.61255712890625 0.4889999999999999 Q 4.67855712890625 0.4889999999999999 4.73480712890625 0.5204999999999999 M 4.68455712890625 1.011 Q 4.72355712890625 0.9449999999999998 4.72355712890625 0.8234999999999999 Q 4.72355712890625 0.6914999999999999 4.67630712890625 0.6247499999999999 Q 4.62905712890625 0.5579999999999999 4.549557128906249 0.5579999999999999 Q 4.47305712890625 0.5579999999999999 4.387557128906249 0.6269999999999999 L 4.387557128906249 0.8564999999999999 Q 4.387557128906249 0.9344999999999999 4.41680712890625 0.9839999999999999 Q 4.44605712890625 1.0334999999999999 4.48880712890625 1.05525 Q 4.5315571289062495 1.077 4.57205712890625 1.077 Q 4.645557128906249 1.077 4.68455712890625 1.011 M 5.531285888671874 0.4072499999999999 Q 5.5590358886718745 0.44999999999999984 5.600285888671874 0.48149999999999993 Q 5.641535888671875 0.5129999999999999 5.712035888671875 0.5564999999999999 Q 5.788535888671874 0.6044999999999999 5.832785888671875 0.6389999999999999 Q 5.877035888671875 0.6734999999999999 5.907785888671874 0.7237499999999999 Q 5.938535888671875 0.7739999999999999 5.938535888671875 0.8414999999999999 Q 5.938535888671875 0.9179999999999999 5.898785888671875 0.9779999999999999 Q 5.859035888671874 1.0379999999999998 5.786285888671875 1.07175 Q 5.713535888671875 1.1055 5.620535888671874 1.1055 Q 5.557535888671874 1.1055 5.490785888671875 1.089 Q 5.424035888671875 1.0725 5.389535888671874 1.0485 Q 5.376035888671875 1.0394999999999999 5.374535888671875 1.02 L 5.365535888671874 0.7919999999999999 L 5.365535888671874 0.7905 Q 5.365535888671874 0.7845 5.3730358886718745 0.78375 Q 5.380535888671875 0.7829999999999999 5.382035888671875 0.7889999999999999 Q 5.431535888671875 0.9134999999999999 5.495285888671875 0.9929999999999999 Q 5.5590358886718745 1.0725 5.658035888671875 1.0725 Q 5.7225358886718745 1.0725 5.766035888671874 1.03725 Q 5.809535888671874 1.002 5.809535888671874 0.9194999999999999 Q 5.809535888671874 0.8534999999999999 5.780285888671875 0.8039999999999998 Q 5.751035888671875 0.7545 5.708285888671875 0.7214999999999999 Q 5.665535888671875 0.6884999999999999 5.592035888671875 0.6404999999999998 Q 5.520035888671875 0.5939999999999999 5.479535888671875 0.5617499999999999 Q 5.439035888671874 0.5294999999999999 5.410535888671874 0.48224999999999985 Q 5.382035888671875 0.43499999999999994 5.382035888671875 0.3719999999999999 Q 5.382035888671875 0.29399999999999993 5.425535888671875 0.23999999999999988 Q 5.469035888671875 0.18599999999999994 5.538785888671875 0.15974999999999984 Q 5.608535888671875 0.13349999999999984 5.685035888671875 0.13349999999999984 Q 5.736035888671875 0.13349999999999984 5.787035888671874 0.14324999999999988 Q 5.838035888671874 0.1529999999999999 5.872535888671875 0.16799999999999993 Q 5.886035888671874 0.17249999999999988 5.890535888671875 0.1792499999999999 Q 5.895035888671875 0.18599999999999994 5.895035888671875 0.1964999999999999 L 5.899535888671875 0.40049999999999986 Q 5.899535888671875 0.4049999999999999 5.891285888671875 0.4072499999999999 Q 5.883035888671874 0.40949999999999986 5.881535888671874 0.40349999999999986 Q 5.851535888671875 0.31199999999999994 5.801285888671875 0.2377499999999999 Q 5.751035888671875 0.16349999999999987 5.650535888671874 0.16349999999999987 Q 5.5830358886718745 0.16349999999999987 5.543285888671875 0.2024999999999999 Q 5.503535888671875 0.24149999999999994 5.503535888671875 0.30899999999999994 Q 5.503535888671875 0.36449999999999994 5.531285888671874 0.4072499999999999 M 6.210064453125 1.06425 Q 6.141064453125 1.0214999999999999 6.103564453124999 0.9487499999999999 Q 6.066064453125 0.8759999999999999 6.066064453125 0.7905 Q 6.066064453125 0.6929999999999998 6.114814453125 0.6247499999999999 Q 6.163564453125 0.5564999999999999 6.239314453124999 0.5227499999999999 Q 6.315064453124999 0.4889999999999999 6.394564453125 0.4889999999999999 Q 6.486064453125 0.4889999999999999 6.5543144531249995 0.5324999999999999 Q 6.622564453124999 0.5759999999999998 6.658564453125 0.6472499999999999 Q 6.6945644531249995 0.7184999999999999 6.6945644531249995 0.7994999999999999 Q 6.6945644531249995 0.8895 6.650314453125 0.96 Q 6.606064453125 1.0305 6.5310644531249995 1.0687499999999999 Q 6.456064453124999 1.107 6.369064453125 1.107 Q 6.279064453125 1.107 6.210064453125 1.06425 M 6.515314453125 1.0185 Q 6.550564453124999 0.96 6.550564453124999 0.8474999999999999 Q 6.550564453124999 0.7469999999999999 6.522814453124999 0.6719999999999999 Q 6.495064453125 0.597 6.447814453125 0.5579999999999999 Q 6.400564453125 0.5189999999999999 6.345064453125 0.5189999999999999 Q 6.277564453125 0.5189999999999999 6.243064453124999 0.5744999999999999 Q 6.208564453125 0.6299999999999999 6.208564453125 0.7379999999999999 Q 6.208564453125 0.8354999999999999 6.234814453125 0.91275 Q 6.261064453125 0.9899999999999999 6.308314453125 1.0334999999999999 Q 6.355564453125 1.077 6.4140644531249995 1.077 Q 6.480064453124999 1.077 6.515314453125 1.0185 M 6.795098876953125 1.0785 Q 6.795098876953125 1.0695 6.799598876953125 1.0695 Q 6.849098876953125 1.0695 6.867098876953125 1.04775 Q 6.8850988769531245 1.0259999999999998 6.8850988769531245 0.966 L 6.8850988769531245 0.1994999999999999 Q 6.8850988769531245 0.1469999999999999 6.875348876953124 0.12374999999999992 Q 6.865598876953125 0.10049999999999992 6.840098876953125 0.10049999999999992 Q 6.817598876953125 0.10049999999999992 6.780098876953124 0.11849999999999994 L 6.778598876953125 0.11849999999999994 Q 6.772598876953125 0.11849999999999994 6.769598876953125 0.11099999999999988 Q 6.7665988769531245 0.10349999999999993 6.769598876953125 0.10049999999999992 L 6.981098876953125 0.0014999999999998348 L 6.987098876953125 -2.220446049250313e-16 Q 6.993098876953124 -2.220446049250313e-16 7.0013488769531245 0.005999999999999783 Q 7.009598876953125 0.011999999999999789 7.009598876953125 0.01649999999999996 L 7.009598876953125 0.966 Q 7.009598876953125 1.0274999999999999 7.0260988769531245 1.0485 Q 7.042598876953124 1.0695 7.093598876953124 1.0695 Q 7.098098876953125 1.0695 7.098098876953125 1.0785 Q 7.098098876953125 1.0875 7.093598876953124 1.0875 Q 7.057598876953125 1.0875 7.035098876953125 1.0859999999999999 L 6.946598876953124 1.0845 L 6.859598876953124 1.0859999999999999 Q 6.8370988769531245 1.0875 6.799598876953125 1.0875 Q 6.795098876953125 1.0875 6.795098876953125 1.0785 M 7.882620849609374 0.9929999999999999 Q 7.887120849609374 0.9929999999999999 7.890120849609374 1.0005 Q 7.8931208496093745 1.008 7.888620849609374 1.011 L 7.692120849609374 1.1055 L 7.686120849609375 1.107 Q 7.671120849609374 1.107 7.659120849609375 1.0732499999999998 Q 7.647120849609374 1.0394999999999999 7.645620849609374 0.9824999999999999 Q 7.5406208496093745 1.1039999999999999 7.4236208496093745 1.1039999999999999 Q 7.342620849609374 1.1039999999999999 7.297620849609374 1.05375 Q 7.252620849609374 1.0034999999999998 7.252620849609374 0.9164999999999999 L 7.252620849609374 0.6929999999999998 Q 7.252620849609374 0.591 7.206120849609374 0.591 Q 7.191120849609375 0.591 7.1641208496093745 0.603 L 7.162620849609374 0.603 Q 7.156620849609374 0.603 7.153620849609374 0.5954999999999999 Q 7.150620849609375 0.5879999999999999 7.155120849609374 0.5849999999999999 L 7.345620849609374 0.49649999999999994 L 7.3516208496093745 0.4949999999999999 Q 7.357620849609375 0.4949999999999999 7.365120849609374 0.5009999999999999 Q 7.372620849609374 0.5069999999999999 7.372620849609374 0.5114999999999998 L 7.372620849609374 0.8519999999999999 Q 7.372620849609374 1.0185 7.498620849609375 1.0185 Q 7.536120849609374 1.0185 7.575120849609374 1.0005 Q 7.614120849609375 0.9824999999999999 7.645620849609374 0.9509999999999998 L 7.645620849609374 0.6929999999999998 Q 7.645620849609374 0.6404999999999998 7.6343708496093745 0.6157499999999999 Q 7.623120849609374 0.591 7.599120849609374 0.591 Q 7.585620849609374 0.591 7.557120849609374 0.603 L 7.555620849609374 0.603 Q 7.549620849609375 0.603 7.546620849609375 0.5947499999999999 Q 7.543620849609375 0.5864999999999999 7.549620849609375 0.5849999999999999 L 7.738620849609374 0.49649999999999994 Q 7.741620849609374 0.4949999999999999 7.746120849609374 0.4949999999999999 Q 7.7521208496093745 0.4949999999999999 7.759620849609375 0.5009999999999999 Q 7.767120849609374 0.5069999999999999 7.767120849609374 0.5114999999999998 L 7.767120849609374 0.9179999999999999 Q 7.767120849609374 0.9704999999999999 7.777620849609375 0.9914999999999999 Q 7.788120849609374 1.0125 7.812120849609374 1.0125 Q 7.830120849609375 1.0125 7.879620849609374 0.9944999999999999 L 7.882620849609374 0.9929999999999999 M 8.370085693359375 0.9914999999999999 Q 8.374585693359375 0.9914999999999999 8.378335693359375 0.9974999999999999 Q 8.382085693359375 1.0034999999999998 8.377585693359375 1.0065 Q 8.322085693359375 1.059 8.272585693359375 1.08225 Q 8.223085693359375 1.1055 8.167585693359374 1.1055 Q 8.103085693359374 1.1055 8.058835693359374 1.0747499999999999 Q 8.014585693359374 1.0439999999999998 8.014585693359374 0.9719999999999999 L 8.014585693359374 0.6329999999999999 Q 8.014585693359374 0.5834999999999999 7.998835693359374 0.567 Q 7.983085693359374 0.5504999999999999 7.938085693359374 0.5504999999999999 Q 7.936585693359374 0.5504999999999999 7.934335693359374 0.5467499999999998 Q 7.932085693359374 0.5429999999999999 7.932085693359374 0.5384999999999999 Q 7.932085693359374 0.5339999999999999 7.934335693359374 0.5302499999999999 Q 7.936585693359374 0.5264999999999999 7.938085693359374 0.5264999999999999 Q 8.079085693359374 0.5204999999999999 8.115085693359374 0.4049999999999999 Q 8.118085693359374 0.3989999999999999 8.127835693359375 0.3989999999999999 Q 8.137585693359375 0.3989999999999999 8.137585693359375 0.4049999999999999 L 8.137585693359375 0.5234999999999999 Q 8.208085693359374 0.5219999999999999 8.337085693359374 0.5085 Q 8.340085693359374 0.5085 8.343835693359374 0.5197499999999999 Q 8.347585693359374 0.5309999999999999 8.347585693359374 0.5444999999999999 Q 8.347585693359374 0.5579999999999999 8.342335693359374 0.5714999999999999 Q 8.337085693359374 0.5849999999999999 8.331085693359375 0.5834999999999999 Q 8.247085693359374 0.564 8.137585693359375 0.5594999999999999 L 8.137585693359375 0.9224999999999999 Q 8.137585693359375 0.9809999999999999 8.166835693359374 1.0087499999999998 Q 8.196085693359374 1.0365 8.248585693359374 1.0365 Q 8.311585693359374 1.0365 8.367085693359375 0.9929999999999999 L 8.370085693359375 0.9914999999999999 M 8.53729833984375 0.31499999999999995 Q 8.515548339843749 0.29399999999999993 8.515548339843749 0.2549999999999999 Q 8.515548339843749 0.21749999999999992 8.53729833984375 0.19724999999999993 Q 8.559048339843748 0.17699999999999994 8.59804833984375 0.17699999999999994 Q 8.63554833984375 0.17699999999999994 8.656548339843749 0.19724999999999993 Q 8.67754833984375 0.21749999999999992 8.67754833984375 0.2549999999999999 Q 8.67754833984375 0.29399999999999993 8.657298339843749 0.31499999999999995 Q 8.63704833984375 0.33599999999999985 8.59804833984375 0.33599999999999985 Q 8.559048339843748 0.33599999999999985 8.53729833984375 0.31499999999999995 M 8.45554833984375 1.0785 Q 8.45554833984375 1.0695 8.46004833984375 1.0695 Q 8.51104833984375 1.0695 8.527548339843749 1.0485 Q 8.54404833984375 1.0274999999999999 8.54404833984375 0.966 L 8.54404833984375 0.6929999999999998 Q 8.54404833984375 0.6419999999999999 8.53354833984375 0.6187499999999999 Q 8.523048339843749 0.5954999999999999 8.49754833984375 0.5954999999999999 Q 8.475048339843749 0.5954999999999999 8.43904833984375 0.6134999999999999 L 8.43754833984375 0.6134999999999999 Q 8.431548339843749 0.6134999999999999 8.428548339843749 0.6059999999999999 Q 8.425548339843749 0.5984999999999999 8.430048339843749 0.5954999999999999 L 8.64604833984375 0.4949999999999999 L 8.65054833984375 0.49349999999999994 Q 8.656548339843749 0.49349999999999994 8.663298339843749 0.5002499999999999 Q 8.67004833984375 0.5069999999999999 8.67004833984375 0.5114999999999998 L 8.67004833984375 0.5429999999999999 Q 8.667048339843749 0.6059999999999999 8.667048339843749 0.6914999999999999 L 8.667048339843749 0.966 Q 8.667048339843749 1.0274999999999999 8.68429833984375 1.0485 Q 8.701548339843749 1.0695 8.752548339843749 1.0695 Q 8.757048339843749 1.0695 8.757048339843749 1.0785 Q 8.757048339843749 1.0875 8.752548339843749 1.0875 Q 8.715048339843749 1.0875 8.69254833984375 1.0859999999999999 L 8.605548339843748 1.0845 L 8.518548339843749 1.0859999999999999 Q 8.49754833984375 1.0875 8.46004833984375 1.0875 Q 8.45554833984375 1.0875 8.45554833984375 1.0785 M 8.98503515625 1.06425 Q 8.916035156249999 1.0214999999999999 8.878535156249999 0.9487499999999999 Q 8.84103515625 0.8759999999999999 8.84103515625 0.7905 Q 8.84103515625 0.6929999999999998 8.88978515625 0.6247499999999999 Q 8.93853515625 0.5564999999999999 9.014285156249999 0.5227499999999999 Q 9.09003515625 0.4889999999999999 9.16953515625 0.4889999999999999 Q 9.26103515625 0.4889999999999999 9.32928515625 0.5324999999999999 Q 9.39753515625 0.5759999999999998 9.433535156249999 0.6472499999999999 Q 9.46953515625 0.7184999999999999 9.46953515625 0.7994999999999999 Q 9.46953515625 0.8895 9.425285156249998 0.96 Q 9.381035156249999 1.0305 9.30603515625 1.0687499999999999 Q 9.23103515625 1.107 9.144035156249998 1.107 Q 9.054035156249999 1.107 8.98503515625 1.06425 M 9.290285156249999 1.0185 Q 9.32553515625 0.96 9.32553515625 0.8474999999999999 Q 9.32553515625 0.7469999999999999 9.297785156249999 0.6719999999999999 Q 9.27003515625 0.597 9.22278515625 0.5579999999999999 Q 9.17553515625 0.5189999999999999 9.12003515625 0.5189999999999999 Q 9.052535156249998 0.5189999999999999 9.018035156249999 0.5744999999999999 Q 8.98353515625 0.6299999999999999 8.98353515625 0.7379999999999999 Q 8.98353515625 0.8354999999999999 9.009785156249999 0.91275 Q 9.03603515625 0.9899999999999999 9.08328515625 1.0334999999999999 Q 9.13053515625 1.077 9.18903515625 1.077 Q 9.255035156249999 1.077 9.290285156249999 1.0185 M 10.279569580078125 1.0785 Q 10.279569580078125 1.0875 10.275069580078124 1.0875 Q 10.237569580078125 1.0875 10.216569580078124 1.0859999999999999 L 10.129569580078124 1.0845 L 10.044069580078125 1.0859999999999999 Q 10.021569580078124 1.0875 9.984069580078124 1.0875 Q 9.979569580078124 1.0875 9.979569580078124 1.0785 Q 9.979569580078124 1.0695 9.984069580078124 1.0695 Q 10.035069580078124 1.0695 10.051569580078125 1.0485 Q 10.068069580078124 1.0274999999999999 10.068069580078124 0.966 L 10.068069580078124 0.7409999999999999 Q 10.068069580078124 0.6569999999999999 10.037319580078124 0.6172499999999999 Q 10.006569580078125 0.5774999999999999 9.940569580078124 0.5774999999999999 Q 9.901569580078124 0.5774999999999999 9.861069580078125 0.5954999999999999 Q 9.820569580078125 0.6134999999999999 9.787569580078124 0.6435 L 9.787569580078124 0.966 Q 9.787569580078124 1.0274999999999999 9.804069580078124 1.0485 Q 9.820569580078125 1.0695 9.871569580078123 1.0695 Q 9.876069580078124 1.0695 9.876069580078124 1.0785 Q 9.876069580078124 1.0875 9.871569580078123 1.0875 Q 9.834069580078124 1.0875 9.813069580078125 1.0859999999999999 L 9.726069580078125 1.0845 L 9.639069580078123 1.0859999999999999 Q 9.618069580078124 1.0875 9.580569580078125 1.0875 Q 9.576069580078125 1.0875 9.576069580078125 1.0785 Q 9.576069580078125 1.0695 9.580569580078125 1.0695 Q 9.631569580078125 1.0695 9.648069580078124 1.0485 Q 9.664569580078124 1.0274999999999999 9.664569580078124 0.966 L 9.664569580078124 0.6794999999999999 Q 9.664569580078124 0.6315 9.653319580078124 0.6089999999999999 Q 9.642069580078124 0.5864999999999999 9.616569580078124 0.5864999999999999 Q 9.594069580078123 0.5864999999999999 9.541569580078125 0.6089999999999999 L 9.540069580078125 0.6089999999999999 Q 9.534069580078125 0.6089999999999999 9.531069580078125 0.6014999999999999 Q 9.528069580078125 0.5939999999999999 9.532569580078125 0.5924999999999999 L 9.729069580078125 0.49649999999999994 Q 9.738069580078124 0.49349999999999994 9.739569580078124 0.49349999999999994 Q 9.754569580078124 0.49349999999999994 9.770319580078125 0.5272499999999999 Q 9.786069580078124 0.5609999999999999 9.787569580078124 0.6149999999999999 Q 9.892569580078124 0.49049999999999994 10.015569580078123 0.49049999999999994 Q 10.098069580078125 0.49049999999999994 10.144569580078125 0.54075 Q 10.191069580078125 0.591 10.191069580078125 0.6764999999999999 L 10.191069580078125 0.966 Q 10.191069580078125 1.0274999999999999 10.207569580078124 1.0485 Q 10.224069580078124 1.0695 10.275069580078124 1.0695 Q 10.279569580078125 1.0695 10.279569580078125 1.0785 M 10.5023349609375 0.6644999999999999 Q 10.534584960937499 0.696 10.5960849609375 0.7304999999999999 Q 10.6500849609375 0.7605 10.6793349609375 0.7799999999999999 Q 10.708584960937499 0.7994999999999999 10.7303349609375 0.8324999999999999 Q 10.752084960937498 0.8654999999999999 10.752084960937498 0.9119999999999999 Q 10.752084960937498 0.9629999999999999 10.7265849609375 1.0065 Q 10.7010849609375 1.0499999999999998 10.6508349609375 1.077 Q 10.6005849609375 1.1039999999999999 10.531584960937499 1.1039999999999999 Q 10.4490849609375 1.1039999999999999 10.380084960937499 1.0619999999999998 Q 10.3710849609375 1.053 10.3710849609375 1.0439999999999998 L 10.3680849609375 0.9059999999999999 Q 10.3680849609375 0.9015 10.376334960937498 0.9007499999999999 Q 10.384584960937499 0.8999999999999999 10.386084960937499 0.9029999999999999 Q 10.4115849609375 0.9779999999999999 10.4633349609375 1.0259999999999998 Q 10.515084960937498 1.0739999999999998 10.573584960937499 1.0739999999999998 Q 10.611084960937498 1.0739999999999998 10.6320849609375 1.0545 Q 10.6530849609375 1.035 10.6530849609375 0.9959999999999999 Q 10.6530849609375 0.939 10.620084960937499 0.9052499999999999 Q 10.5870849609375 0.8714999999999999 10.524084960937499 0.8384999999999999 Q 10.473084960937499 0.8114999999999999 10.4445849609375 0.7927499999999998 Q 10.4160849609375 0.7739999999999999 10.3958349609375 0.7417499999999999 Q 10.375584960937498 0.7094999999999999 10.375584960937498 0.6615 Q 10.375584960937498 0.5759999999999998 10.437834960937499 0.5339999999999999 Q 10.5000849609375 0.4919999999999999 10.5885849609375 0.4919999999999999 Q 10.6470849609375 0.4919999999999999 10.708584960937499 0.5144999999999998 Q 10.722084960937499 0.5204999999999999 10.722084960937499 0.5309999999999999 Q 10.722084960937499 0.5654999999999999 10.720584960937499 0.5849999999999999 L 10.719084960937499 0.6569999999999999 Q 10.719084960937499 0.6615 10.710084960937499 0.6615 Q 10.7010849609375 0.6615 10.7010849609375 0.6569999999999999 Q 10.7010849609375 0.6269999999999999 10.6770849609375 0.5947499999999999 Q 10.6530849609375 0.5624999999999999 10.615584960937499 0.5414999999999999 Q 10.578084960937499 0.5204999999999999 10.5390849609375 0.5204999999999999 Q 10.470084960937498 0.5204999999999999 10.470084960937498 0.5864999999999999 Q 10.470084960937498 0.6329999999999999 10.5023349609375 0.6644999999999999" fill="#382d5e" fill-rule="nonzero"></path></g><g><path d=" M 0.46425 1.5296625 Q 0.46425 1.5341624999999999 0.46275 1.5341624999999999 Q 0.43725 1.5341624999999999 0.407625 1.5570374999999999 Q 0.378 1.5799124999999998 0.35475 1.6174125 L 0.26175 1.7636625 L 0.26175 1.9331625 Q 0.26175 1.9564124999999999 0.26587500000000003 1.9669125 Q 0.27 1.9774125 0.282375 1.9811625 Q 0.29475 1.9849125 0.32175 1.9849125 Q 0.324 1.9849125 0.324 1.9894125 Q 0.324 1.9939125 0.32175 1.9939125 Q 0.2985 1.9939125 0.28500000000000003 1.9931625 L 0.231 1.9924125 L 0.1785 1.9931625 Q 0.165 1.9939125 0.14025 1.9939125 Q 0.138 1.9939125 0.138 1.9894125 Q 0.138 1.9849125 0.14025 1.9849125 Q 0.16725 1.9849125 0.18 1.9811625 Q 0.19275 1.9774125 0.19725 1.9665375 Q 0.20175 1.9556625 0.20175 1.9331625 L 0.20175 1.7764125 L 0.0825 1.5986625 Q 0.0585 1.5626625 0.040125 1.5484125 Q 0.021750000000000002 1.5341624999999999 0.00075 1.5341624999999999 Q -0.0015 1.5341624999999999 -0.0015 1.5296625 Q -0.0015 1.5251625 0.00075 1.5251625 Q 0.009000000000000001 1.5251625 0.027 1.5266625 L 0.051750000000000004 1.5274125 Q 0.0765 1.5274125 0.12 1.5259125 L 0.1635 1.5251625 Q 0.165 1.5251625 0.165 1.5296625 Q 0.165 1.5341624999999999 0.1635 1.5341624999999999 Q 0.12825 1.5341624999999999 0.12825 1.5521625 Q 0.12825 1.5604125 0.1365 1.5731625 L 0.252 1.7456625 L 0.336 1.6129125 Q 0.354 1.5836625 0.354 1.5649125 Q 0.354 1.5499125 0.3435 1.5420375 Q 0.333 1.5341624999999999 0.31275000000000003 1.5341624999999999 Q 0.3105 1.5341624999999999 0.3105 1.5296625 Q 0.3105 1.5251625 0.31275000000000003 1.5251625 L 0.34950000000000003 1.5259125 Q 0.3795 1.5274125 0.40425 1.5274125 Q 0.417 1.5274125 0.435 1.5259125 L 0.46275 1.5251625 Q 0.46425 1.5251625 0.46425 1.5296625 M 0.47589624023437493 1.9822875 Q 0.44214624023437493 1.9609125 0.42377124023437496 1.9245375 Q 0.4053962402343749 1.8881625 0.4053962402343749 1.8454125 Q 0.4053962402343749 1.7966625 0.42939624023437495 1.7625375 Q 0.4533962402343749 1.7284125 0.49089624023437495 1.7115375 Q 0.5283962402343749 1.6946625 0.567396240234375 1.6946625 Q 0.611646240234375 1.6946625 0.6453962402343749 1.7164125 Q 0.6791462402343749 1.7381625 0.6971462402343749 1.7737875 Q 0.7151462402343749 1.8094125 0.7151462402343749 1.8491625 Q 0.7151462402343749 1.8949125 0.693021240234375 1.9301625 Q 0.670896240234375 1.9654125 0.6341462402343749 1.9845375 Q 0.5973962402343749 2.0036625 0.553896240234375 2.0036625 Q 0.5096462402343749 2.0036625 0.47589624023437493 1.9822875 M 0.6333962402343749 1.9601625 Q 0.653646240234375 1.9309125 0.653646240234375 1.8724125 Q 0.653646240234375 1.8236625 0.6390212402343749 1.7865375 Q 0.6243962402343749 1.7494125 0.5988962402343749 1.7295375 Q 0.573396240234375 1.7096624999999999 0.541896240234375 1.7096624999999999 Q 0.5051462402343749 1.7096624999999999 0.48527124023437496 1.7377875 Q 0.4653962402343749 1.7659125 0.4653962402343749 1.8206625 Q 0.4653962402343749 1.8679125 0.47964624023437497 1.9065375 Q 0.49389624023437495 1.9451625 0.5190212402343749 1.9672875 Q 0.544146240234375 1.9894125 0.5756462402343749 1.9894125 Q 0.6131462402343749 1.9894125 0.6333962402343749 1.9601625 M 1.1092672119140623 1.9489125 Q 1.1122672119140624 1.9489125 1.1137672119140625 1.9522875 Q 1.1152672119140623 1.9556625 1.1130172119140624 1.9571625 L 1.0200172119140625 2.0014125 Q 1.0185172119140624 2.0021625 1.0162672119140623 2.0021625 Q 1.0095172119140623 2.0021625 1.0027672119140623 1.9845375 Q 0.9960172119140625 1.9669125 0.9960172119140625 1.9384124999999999 Q 0.9405172119140623 2.0006625 0.8805172119140624 2.0006625 Q 0.8422672119140624 2.0006625 0.8201422119140623 1.9762875 Q 0.7980172119140624 1.9519125 0.7980172119140624 1.9084125 L 0.7980172119140624 1.7951625 Q 0.7980172119140624 1.7666625 0.7927672119140624 1.7542875 Q 0.7875172119140623 1.7419125 0.7755172119140623 1.7419125 Q 0.7650172119140624 1.7419125 0.7522672119140623 1.7479125 L 0.7507672119140624 1.7479125 Q 0.7485172119140624 1.7479125 0.7473922119140624 1.7441625 Q 0.7462672119140623 1.7404125 0.7485172119140624 1.7396625 L 0.8370172119140624 1.6984124999999999 L 0.8400172119140623 1.6976624999999999 Q 0.8430172119140624 1.6976624999999999 0.8460172119140623 1.6999125 Q 0.8490172119140623 1.7021625 0.8490172119140623 1.7051625 L 0.8490172119140623 1.8799124999999999 Q 0.8490172119140623 1.9646625 0.9120172119140624 1.9646625 Q 0.9330172119140624 1.9646625 0.9555172119140624 1.9541625 Q 0.9780172119140624 1.9436625 0.9960172119140625 1.9249125 L 0.9960172119140625 1.7951625 Q 0.9960172119140625 1.7666625 0.9907672119140624 1.7542875 Q 0.9855172119140624 1.7419125 0.9735172119140624 1.7419125 Q 0.9637672119140623 1.7419125 0.9495172119140624 1.7479125 L 0.9480172119140624 1.7479125 Q 0.9457672119140623 1.7479125 0.9450172119140624 1.7441625 Q 0.9442672119140624 1.7404125 0.9465172119140624 1.7396625 L 1.0350172119140624 1.6984124999999999 L 1.0380172119140623 1.6976624999999999 Q 1.0410172119140624 1.6976624999999999 1.0440172119140625 1.6999125 Q 1.0470172119140624 1.7021625 1.0470172119140624 1.7051625 L 1.0470172119140624 1.9114125 Q 1.0470172119140624 1.9369125 1.0526422119140624 1.9481625 Q 1.0582672119140624 1.9594125 1.0717672119140624 1.9594125 Q 1.0837672119140624 1.9594125 1.1085172119140623 1.9489125 L 1.1092672119140623 1.9489125 M 1.3601491699218748 1.7077875 Q 1.375149169921875 1.7179125 1.375149169921875 1.7321625 Q 1.375149169921875 1.7434125 1.367649169921875 1.7512874999999999 Q 1.3601491699218748 1.7591625 1.347399169921875 1.7591625 Q 1.339899169921875 1.7591625 1.334649169921875 1.7565374999999999 Q 1.3293991699218748 1.7539125 1.3256491699218749 1.7505375 Q 1.321899169921875 1.7471625 1.320399169921875 1.7464125 Q 1.3143991699218749 1.7404125 1.308774169921875 1.7370375 Q 1.303149169921875 1.7336624999999999 1.2948991699218748 1.7336624999999999 Q 1.285899169921875 1.7336624999999999 1.275399169921875 1.7407875 Q 1.264899169921875 1.7479125 1.2438991699218749 1.7719125 L 1.2438991699218749 1.9331625 Q 1.2438991699218749 1.9549125 1.2495241699218749 1.9657875 Q 1.2551491699218749 1.9766625 1.270149169921875 1.9807875 Q 1.285149169921875 1.9849125 1.315149169921875 1.9849125 Q 1.317399169921875 1.9849125 1.317399169921875 1.9894125 Q 1.317399169921875 1.9939125 1.315149169921875 1.9939125 Q 1.2903991699218749 1.9939125 1.275399169921875 1.9931625 L 1.218399169921875 1.9924125 L 1.176399169921875 1.9931625 Q 1.1658991699218748 1.9939125 1.147899169921875 1.9939125 Q 1.145649169921875 1.9939125 1.145649169921875 1.9894125 Q 1.145649169921875 1.9849125 1.147899169921875 1.9849125 Q 1.174899169921875 1.9849125 1.1835241699218748 1.9747875 Q 1.192149169921875 1.9646625 1.192149169921875 1.9331625 L 1.192149169921875 1.7869125 Q 1.192149169921875 1.7621625 1.186524169921875 1.7512874999999999 Q 1.180899169921875 1.7404125 1.1673991699218749 1.7404125 Q 1.153149169921875 1.7404125 1.127649169921875 1.7509125 L 1.1261491699218749 1.7509125 Q 1.123899169921875 1.7509125 1.122774169921875 1.7471625 Q 1.121649169921875 1.7434125 1.123899169921875 1.7426625 L 1.216899169921875 1.6984124999999999 Q 1.218399169921875 1.6976624999999999 1.221399169921875 1.6976624999999999 Q 1.228899169921875 1.6976624999999999 1.2360241699218748 1.7141625 Q 1.2431491699218749 1.7306625 1.2438991699218749 1.7576625 Q 1.274649169921875 1.7231625 1.293024169921875 1.7104125 Q 1.311399169921875 1.6976624999999999 1.327899169921875 1.6976624999999999 Q 1.345149169921875 1.6976624999999999 1.3601491699218748 1.7077875 M 2.2616696777343748 1.5296625 Q 2.2616696777343748 1.5341624999999999 2.259419677734375 1.5341624999999999 Q 2.232419677734375 1.5341624999999999 2.210294677734375 1.5510375 Q 2.188169677734375 1.5679125 2.178419677734375 1.6024125 L 2.065919677734375 1.9931625 Q 2.065919677734375 1.9961625 2.057669677734375 1.9961625 Q 2.0501696777343748 1.9961625 2.049419677734375 1.9931625 L 1.905419677734375 1.6189125 L 1.791419677734375 1.9931625 Q 1.791419677734375 1.9961625 1.783169677734375 1.9961625 Q 1.776419677734375 1.9961625 1.774169677734375 1.9931625 L 1.632419677734375 1.5874125 Q 1.621919677734375 1.5566624999999998 1.608044677734375 1.5454124999999999 Q 1.594169677734375 1.5341624999999999 1.570919677734375 1.5341624999999999 Q 1.568669677734375 1.5341624999999999 1.568669677734375 1.5296625 Q 1.568669677734375 1.5251625 1.570919677734375 1.5251625 L 1.594169677734375 1.5259125 Q 1.613669677734375 1.5274125 1.630919677734375 1.5274125 Q 1.673669677734375 1.5274125 1.714169677734375 1.5259125 Q 1.726169677734375 1.5251625 1.744169677734375 1.5251625 Q 1.746419677734375 1.5251625 1.746419677734375 1.5296625 Q 1.746419677734375 1.5341624999999999 1.744169677734375 1.5341624999999999 Q 1.692419677734375 1.5341624999999999 1.692419677734375 1.5671625 Q 1.692419677734375 1.5761625 1.696919677734375 1.5896625 L 1.802669677734375 1.8926625 L 1.915169677734375 1.5251625 Q 1.916669677734375 1.5229125 1.9241696777343749 1.5229125 Q 1.931669677734375 1.5229125 1.932419677734375 1.5251625 L 2.074919677734375 1.8964125 L 2.158919677734375 1.6024125 Q 2.162669677734375 1.5874125 2.162669677734375 1.5784125 Q 2.162669677734375 1.5341624999999999 2.095919677734375 1.5341624999999999 Q 2.094419677734375 1.5341624999999999 2.094419677734375 1.5296625 Q 2.094419677734375 1.5251625 2.095919677734375 1.5251625 L 2.135669677734375 1.5259125 Q 2.168669677734375 1.5274125 2.193419677734375 1.5274125 Q 2.207669677734375 1.5274125 2.228669677734375 1.5259125 L 2.259419677734375 1.5251625 Q 2.2616696777343748 1.5251625 2.2616696777343748 1.5296625 M 2.481029663085937 1.9496625 Q 2.4832796630859373 1.9496625 2.4851546630859374 1.9522875 Q 2.4870296630859374 1.9549125 2.4855296630859374 1.9571625 Q 2.4592796630859373 1.9811625 2.431904663085937 1.9920375 Q 2.4045296630859374 2.0029125 2.373029663085937 2.0029125 Q 2.328029663085937 2.0029125 2.2954046630859373 1.9830375 Q 2.2627796630859374 1.9631625 2.245904663085937 1.9301625 Q 2.2290296630859374 1.8971624999999999 2.2290296630859374 1.8589125 Q 2.2290296630859374 1.8146625 2.2504046630859373 1.7775375 Q 2.2717796630859373 1.7404125 2.3096546630859374 1.7190375 Q 2.3475296630859375 1.6976624999999999 2.3932796630859374 1.6976624999999999 Q 2.4352796630859372 1.6976624999999999 2.4585296630859372 1.7175375 Q 2.4817796630859372 1.7374125 2.4817796630859372 1.7719125 Q 2.4817796630859372 1.7906625 2.4735296630859374 1.7906625 L 2.4375296630859373 1.7906625 L 2.2897796630859375 1.7921624999999999 Q 2.2867796630859374 1.8071625 2.2867796630859374 1.8289125 Q 2.2867796630859374 1.8934125 2.3179046630859372 1.9331625 Q 2.349029663085937 1.9729125 2.4037796630859374 1.9729125 Q 2.4472796630859373 1.9729125 2.480279663085937 1.9496625 L 2.481029663085937 1.9496625 M 2.3197796630859373 1.7302875 Q 2.3002796630859375 1.7479125 2.292029663085937 1.7801624999999999 L 2.421029663085937 1.7771625 Q 2.420279663085937 1.7471625 2.4060296630859375 1.7299125 Q 2.3917796630859374 1.7126625 2.3670296630859373 1.7126625 Q 2.339279663085937 1.7126625 2.3197796630859373 1.7302875 M 2.8084127197265625 1.7104125 Q 2.836162719726562 1.7261625 2.8526627197265624 1.7572875 Q 2.869162719726562 1.7884125 2.869162719726562 1.8334125 Q 2.869162719726562 1.8881625 2.845912719726562 1.9264125 Q 2.822662719726562 1.9646625 2.7851627197265625 1.9841625 Q 2.7476627197265624 2.0036625 2.705662719726562 2.0036625 Q 2.647912719726562 2.0036625 2.602162719726562 1.9699125 L 2.5414127197265626 1.9976625 L 2.5399127197265625 1.9976625 Q 2.5369127197265624 1.9976625 2.5365377197265624 1.9950375 Q 2.5361627197265624 1.9924125 2.5384127197265625 1.9909125 Q 2.5601627197265624 1.9759125 2.5699127197265623 1.9601625 Q 2.5796627197265622 1.9444124999999999 2.5796627197265622 1.9166625 L 2.5796627197265622 1.5484125 Q 2.5796627197265622 1.5214124999999998 2.5744127197265625 1.5094125 Q 2.5691627197265623 1.4974125 2.5556627197265622 1.4974125 Q 2.5451627197265623 1.4974125 2.5234127197265623 1.5071625 L 2.5219127197265623 1.5071625 Q 2.519662719726562 1.5071625 2.518537719726562 1.5034125 Q 2.5174127197265626 1.4996625 2.519662719726562 1.4989124999999999 L 2.6186627197265624 1.4509124999999998 L 2.6224127197265625 1.4501624999999998 Q 2.624662719726562 1.4501624999999998 2.6276627197265623 1.4524124999999999 Q 2.6306627197265624 1.4546625 2.6306627197265624 1.4576625 L 2.6306627197265624 1.7546625 Q 2.6561627197265625 1.7276625 2.6846627197265622 1.7111625 Q 2.7131627197265624 1.6946625 2.7476627197265624 1.6946625 Q 2.7806627197265623 1.6946625 2.8084127197265625 1.7104125 M 2.789287719726562 1.9556625 Q 2.8114127197265626 1.9219125 2.8114127197265626 1.8604125 Q 2.8114127197265626 1.7936625 2.7862877197265625 1.7587875 Q 2.7611627197265625 1.7239125 2.719162719726562 1.7239125 Q 2.6786627197265624 1.7239125 2.6306627197265624 1.7674125 L 2.6306627197265624 1.8874125 Q 2.6306627197265624 1.9226625 2.6464127197265626 1.9455375 Q 2.6621627197265623 1.9684125 2.684287719726562 1.9789125 Q 2.706412719726562 1.9894125 2.7274127197265625 1.9894125 Q 2.7671627197265622 1.9894125 2.789287719726562 1.9556625 M 2.9936806640625 1.7876625 Q 3.0105556640624997 1.8034124999999999 3.0420556640625 1.8199125 Q 3.0690556640624997 1.8341625 3.0836806640625 1.8442875 Q 3.0983056640625 1.8544125 3.1088056640625 1.8701625 Q 3.1193056640625 1.8859124999999999 3.1193056640625 1.9091624999999999 Q 3.1193056640625 1.9474125 3.0904306640624997 1.9747875 Q 3.0615556640625 2.0021625 3.0113056640624998 2.0021625 Q 2.9723056640625 2.0021625 2.9378056640625 1.9804125 Q 2.9333056640625 1.9759125 2.9333056640625 1.9714125 L 2.9318056640625 1.9076625 Q 2.9318056640625 1.9054125 2.9359306640625 1.9050375 Q 2.9400556640624997 1.9046625 2.9408056640624998 1.9069125 Q 2.9543056640625 1.9444124999999999 2.9786806640625 1.9661625 Q 3.0030556640625 1.9879125 3.0330556640624997 1.9879125 Q 3.0540556640625 1.9879125 3.0656806640625 1.9774125 Q 3.0773056640625 1.9669125 3.0773056640625 1.9466625 Q 3.0773056640625 1.9256625 3.0683056640624997 1.9110375 Q 3.0593056640625 1.8964125 3.0461806640624998 1.8877875 Q 3.0330556640624997 1.8791625 3.0105556640624997 1.8671625 Q 2.9858056640624997 1.8551625 2.9711806640625 1.8454125 Q 2.9565556640625 1.8356625 2.9464306640625 1.8199125 Q 2.9363056640625 1.8041625 2.9363056640625 1.7801624999999999 Q 2.9363056640625 1.7381625 2.9670556640625 1.7167875 Q 2.9978056640624997 1.6954125 3.0405556640625 1.6954125 Q 3.0698056640624998 1.6954125 3.0975556640625 1.7066625 Q 3.1043056640624997 1.7089124999999998 3.1043056640624997 1.7149125 Q 3.1043056640624997 1.7314125 3.1035556640624997 1.7404125 L 3.1028056640625 1.7741625 Q 3.1028056640625 1.7756625 3.0983056640625 1.7756625 Q 3.0938056640625 1.7756625 3.0938056640625 1.7741625 Q 3.0938056640625 1.7591625 3.0818056640625 1.7441625 Q 3.0698056640624998 1.7291625 3.0514306640625 1.7197875 Q 3.0330556640624997 1.7104125 3.0143056640625 1.7104125 Q 2.9970556640624997 1.7104125 2.9869306640624997 1.7190375 Q 2.9768056640625 1.7276625 2.9768056640625 1.7471625 Q 2.9768056640625 1.7719125 2.9936806640625 1.7876625 M 3.227315185546875 1.6046624999999999 Q 3.2171901855468747 1.5949125 3.2171901855468747 1.5776625 Q 3.2171901855468747 1.5611625 3.227315185546875 1.5517875 Q 3.237440185546875 1.5424125 3.254690185546875 1.5424125 Q 3.271190185546875 1.5424125 3.280565185546875 1.5517875 Q 3.289940185546875 1.5611625 3.289940185546875 1.5776625 Q 3.289940185546875 1.5949125 3.280565185546875 1.6046624999999999 Q 3.271190185546875 1.6144125 3.254690185546875 1.6144125 Q 3.237440185546875 1.6144125 3.227315185546875 1.6046624999999999 M 3.186440185546875 1.9894125 Q 3.186440185546875 1.9849125 3.188690185546875 1.9849125 Q 3.215690185546875 1.9849125 3.224690185546875 1.9747875 Q 3.233690185546875 1.9646625 3.233690185546875 1.9331625 L 3.233690185546875 1.7951625 Q 3.233690185546875 1.7681624999999999 3.2284401855468747 1.7565374999999999 Q 3.223190185546875 1.7449124999999999 3.209690185546875 1.7449124999999999 Q 3.196940185546875 1.7449124999999999 3.177440185546875 1.7546625 L 3.176690185546875 1.7546625 Q 3.173690185546875 1.7546625 3.172190185546875 1.7505375 Q 3.1706901855468748 1.7464125 3.173690185546875 1.7456625 L 3.2756901855468747 1.6984124999999999 L 3.278690185546875 1.6976624999999999 Q 3.280940185546875 1.6976624999999999 3.283565185546875 1.6999125 Q 3.286190185546875 1.7021625 3.286190185546875 1.7051625 Q 3.286190185546875 1.7104125 3.285440185546875 1.7351625 Q 3.284690185546875 1.7599125 3.284690185546875 1.7936625 L 3.284690185546875 1.9331625 Q 3.284690185546875 1.9646625 3.293315185546875 1.9747875 Q 3.301940185546875 1.9849125 3.329690185546875 1.9849125 Q 3.331940185546875 1.9849125 3.331940185546875 1.9894125 Q 3.331940185546875 1.9939125 3.329690185546875 1.9939125 Q 3.3116901855468748 1.9939125 3.300440185546875 1.9931625 L 3.259190185546875 1.9924125 L 3.2179401855468748 1.9931625 Q 3.206690185546875 1.9939125 3.188690185546875 1.9939125 Q 3.186440185546875 1.9939125 3.186440185546875 1.9894125 M 3.591829833984375 1.9504124999999999 Q 3.594829833984375 1.9504124999999999 3.596329833984375 1.9537875 Q 3.597829833984375 1.9571625 3.5955798339843748 1.9586625 Q 3.567829833984375 1.9819125 3.544579833984375 1.9924125 Q 3.521329833984375 2.0029125 3.495829833984375 2.0029125 Q 3.464329833984375 2.0029125 3.442954833984375 1.9882875 Q 3.421579833984375 1.9736624999999999 3.421579833984375 1.9391625 L 3.421579833984375 1.7659125 Q 3.421579833984375 1.7396625 3.414454833984375 1.7321625 Q 3.407329833984375 1.7246625 3.382579833984375 1.7246625 Q 3.380329833984375 1.7246625 3.380329833984375 1.7186625 Q 3.380329833984375 1.7134125 3.382579833984375 1.7134125 Q 3.415579833984375 1.7126625 3.435829833984375 1.6972874999999998 Q 3.456079833984375 1.6819125 3.462079833984375 1.6549125 Q 3.462829833984375 1.6526625 3.468079833984375 1.6526625 Q 3.473329833984375 1.6526625 3.473329833984375 1.6549125 L 3.473329833984375 1.7126625 Q 3.510079833984375 1.7119125 3.575329833984375 1.7051625 Q 3.577579833984375 1.7051625 3.579079833984375 1.7104125 Q 3.580579833984375 1.7156625 3.580579833984375 1.7224125 Q 3.580579833984375 1.7291625 3.578329833984375 1.7355375 Q 3.576079833984375 1.7419125 3.573079833984375 1.7411625 Q 3.5258298339843748 1.7314125 3.473329833984375 1.7299125 L 3.473329833984375 1.9136625 Q 3.473329833984375 1.9436625 3.488329833984375 1.9582875 Q 3.503329833984375 1.9729125 3.531079833984375 1.9729125 Q 3.564079833984375 1.9729125 3.590329833984375 1.9511625 L 3.591829833984375 1.9504124999999999 M 3.88846435546875 1.9496625 Q 3.89071435546875 1.9496625 3.89258935546875 1.9522875 Q 3.89446435546875 1.9549125 3.89296435546875 1.9571625 Q 3.86671435546875 1.9811625 3.83933935546875 1.9920375 Q 3.81196435546875 2.0029125 3.78046435546875 2.0029125 Q 3.73546435546875 2.0029125 3.70283935546875 1.9830375 Q 3.67021435546875 1.9631625 3.65333935546875 1.9301625 Q 3.63646435546875 1.8971624999999999 3.63646435546875 1.8589125 Q 3.63646435546875 1.8146625 3.65783935546875 1.7775375 Q 3.67921435546875 1.7404125 3.71708935546875 1.7190375 Q 3.75496435546875 1.6976624999999999 3.80071435546875 1.6976624999999999 Q 3.84271435546875 1.6976624999999999 3.86596435546875 1.7175375 Q 3.88921435546875 1.7374125 3.88921435546875 1.7719125 Q 3.88921435546875 1.7906625 3.88096435546875 1.7906625 L 3.84496435546875 1.7906625 L 3.69721435546875 1.7921624999999999 Q 3.69421435546875 1.8071625 3.69421435546875 1.8289125 Q 3.69421435546875 1.8934125 3.72533935546875 1.9331625 Q 3.75646435546875 1.9729125 3.81121435546875 1.9729125 Q 3.85471435546875 1.9729125 3.88771435546875 1.9496625 L 3.88846435546875 1.9496625 M 3.72721435546875 1.7302875 Q 3.70771435546875 1.7479125 3.69946435546875 1.7801624999999999 L 3.82846435546875 1.7771625 Q 3.82771435546875 1.7471625 3.81346435546875 1.7299125 Q 3.79921435546875 1.7126625 3.77446435546875 1.7126625 Q 3.74671435546875 1.7126625 3.72721435546875 1.7302875 M 4.032847412109375 1.9504124999999999 Q 4.046347412109375 1.9684125 4.046347412109375 2.0014125 Q 4.046347412109375 2.0329125 4.032472412109375 2.0595375 Q 4.018597412109375 2.0861625 3.990847412109375 2.1131625 Q 3.990097412109375 2.1139125 3.988597412109375 2.1139125 Q 3.986347412109375 2.1139125 3.984847412109375 2.1116625 Q 3.9833474121093753 2.1094125 3.984847412109375 2.1079125 Q 4.021597412109375 2.0704124999999998 4.021597412109375 2.0194125 Q 4.021597412109375 1.9984125 4.014097412109375 1.9886625 Q 4.007347412109375 1.9999125 3.989347412109375 1.9999125 Q 3.974347412109375 1.9999125 3.965722412109375 1.9905375 Q 3.957097412109375 1.9811625 3.957097412109375 1.9661625 Q 3.957097412109375 1.9496625 3.967222412109375 1.9410375 Q 3.977347412109375 1.9324124999999999 3.996097412109375 1.9324124999999999 Q 4.019347412109375 1.9324124999999999 4.032847412109375 1.9504124999999999 M 4.728092651367187 1.5296625 Q 4.728092651367187 1.5341624999999999 4.726592651367187 1.5341624999999999 Q 4.701092651367187 1.5341624999999999 4.671467651367188 1.5570374999999999 Q 4.641842651367187 1.5799124999999998 4.618592651367187 1.6174125 L 4.525592651367187 1.7636625 L 4.525592651367187 1.9331625 Q 4.525592651367187 1.9564124999999999 4.5297176513671875 1.9669125 Q 4.533842651367188 1.9774125 4.546217651367187 1.9811625 Q 4.558592651367187 1.9849125 4.585592651367187 1.9849125 Q 4.587842651367187 1.9849125 4.587842651367187 1.9894125 Q 4.587842651367187 1.9939125 4.585592651367187 1.9939125 Q 4.562342651367187 1.9939125 4.548842651367187 1.9931625 L 4.494842651367187 1.9924125 L 4.442342651367187 1.9931625 Q 4.428842651367187 1.9939125 4.404092651367187 1.9939125 Q 4.401842651367187 1.9939125 4.401842651367187 1.9894125 Q 4.401842651367187 1.9849125 4.404092651367187 1.9849125 Q 4.431092651367187 1.9849125 4.443842651367187 1.9811625 Q 4.456592651367187 1.9774125 4.461092651367188 1.9665375 Q 4.465592651367187 1.9556625 4.465592651367187 1.9331625 L 4.465592651367187 1.7764125 L 4.346342651367187 1.5986625 Q 4.322342651367188 1.5626625 4.303967651367187 1.5484125 Q 4.285592651367187 1.5341624999999999 4.264592651367187 1.5341624999999999 Q 4.262342651367187 1.5341624999999999 4.262342651367187 1.5296625 Q 4.262342651367187 1.5251625 4.264592651367187 1.5251625 Q 4.2728426513671875 1.5251625 4.290842651367187 1.5266625 L 4.315592651367187 1.5274125 Q 4.340342651367187 1.5274125 4.383842651367187 1.5259125 L 4.427342651367187 1.5251625 Q 4.428842651367187 1.5251625 4.428842651367187 1.5296625 Q 4.428842651367187 1.5341624999999999 4.427342651367187 1.5341624999999999 Q 4.392092651367188 1.5341624999999999 4.392092651367188 1.5521625 Q 4.392092651367188 1.5604125 4.400342651367187 1.5731625 L 4.515842651367187 1.7456625 L 4.5998426513671875 1.6129125 Q 4.617842651367187 1.5836625 4.617842651367187 1.5649125 Q 4.617842651367187 1.5499125 4.607342651367187 1.5420375 Q 4.596842651367187 1.5341624999999999 4.5765926513671875 1.5341624999999999 Q 4.574342651367187 1.5341624999999999 4.574342651367187 1.5296625 Q 4.574342651367187 1.5251625 4.5765926513671875 1.5251625 L 4.613342651367187 1.5259125 Q 4.643342651367187 1.5274125 4.668092651367187 1.5274125 Q 4.680842651367187 1.5274125 4.698842651367187 1.5259125 L 4.726592651367187 1.5251625 Q 4.728092651367187 1.5251625 4.728092651367187 1.5296625 M 4.739738891601562 1.9822875 Q 4.705988891601562 1.9609125 4.687613891601562 1.9245375 Q 4.669238891601562 1.8881625 4.669238891601562 1.8454125 Q 4.669238891601562 1.7966625 4.693238891601562 1.7625375 Q 4.717238891601562 1.7284125 4.754738891601562 1.7115375 Q 4.792238891601563 1.6946625 4.831238891601562 1.6946625 Q 4.875488891601562 1.6946625 4.909238891601563 1.7164125 Q 4.942988891601562 1.7381625 4.960988891601562 1.7737875 Q 4.9789888916015625 1.8094125 4.9789888916015625 1.8491625 Q 4.9789888916015625 1.8949125 4.956863891601563 1.9301625 Q 4.934738891601563 1.9654125 4.897988891601562 1.9845375 Q 4.8612388916015625 2.0036625 4.817738891601563 2.0036625 Q 4.773488891601562 2.0036625 4.739738891601562 1.9822875 M 4.897238891601562 1.9601625 Q 4.917488891601562 1.9309125 4.917488891601562 1.8724125 Q 4.917488891601562 1.8236625 4.902863891601562 1.7865375 Q 4.888238891601563 1.7494125 4.862738891601563 1.7295375 Q 4.8372388916015625 1.7096624999999999 4.805738891601562 1.7096624999999999 Q 4.768988891601563 1.7096624999999999 4.749113891601562 1.7377875 Q 4.729238891601562 1.7659125 4.729238891601562 1.8206625 Q 4.729238891601562 1.8679125 4.7434888916015625 1.9065375 Q 4.757738891601562 1.9451625 4.782863891601562 1.9672875 Q 4.807988891601562 1.9894125 4.839488891601563 1.9894125 Q 4.876988891601562 1.9894125 4.897238891601562 1.9601625 M 5.3731098632812495 1.9489125 Q 5.37610986328125 1.9489125 5.37760986328125 1.9522875 Q 5.37910986328125 1.9556625 5.37685986328125 1.9571625 L 5.28385986328125 2.0014125 Q 5.28235986328125 2.0021625 5.2801098632812495 2.0021625 Q 5.27335986328125 2.0021625 5.26660986328125 1.9845375 Q 5.25985986328125 1.9669125 5.25985986328125 1.9384124999999999 Q 5.20435986328125 2.0006625 5.14435986328125 2.0006625 Q 5.10610986328125 2.0006625 5.08398486328125 1.9762875 Q 5.06185986328125 1.9519125 5.06185986328125 1.9084125 L 5.06185986328125 1.7951625 Q 5.06185986328125 1.7666625 5.05660986328125 1.7542875 Q 5.05135986328125 1.7419125 5.03935986328125 1.7419125 Q 5.02885986328125 1.7419125 5.01610986328125 1.7479125 L 5.01460986328125 1.7479125 Q 5.01235986328125 1.7479125 5.01123486328125 1.7441625 Q 5.01010986328125 1.7404125 5.01235986328125 1.7396625 L 5.10085986328125 1.6984124999999999 L 5.10385986328125 1.6976624999999999 Q 5.10685986328125 1.6976624999999999 5.10985986328125 1.6999125 Q 5.112859863281249 1.7021625 5.112859863281249 1.7051625 L 5.112859863281249 1.8799124999999999 Q 5.112859863281249 1.9646625 5.17585986328125 1.9646625 Q 5.19685986328125 1.9646625 5.21935986328125 1.9541625 Q 5.24185986328125 1.9436625 5.25985986328125 1.9249125 L 5.25985986328125 1.7951625 Q 5.25985986328125 1.7666625 5.2546098632812495 1.7542875 Q 5.24935986328125 1.7419125 5.23735986328125 1.7419125 Q 5.22760986328125 1.7419125 5.21335986328125 1.7479125 L 5.21185986328125 1.7479125 Q 5.2096098632812495 1.7479125 5.2088598632812495 1.7441625 Q 5.2081098632812495 1.7404125 5.21035986328125 1.7396625 L 5.298859863281249 1.6984124999999999 L 5.3018598632812495 1.6976624999999999 Q 5.30485986328125 1.6976624999999999 5.30785986328125 1.6999125 Q 5.31085986328125 1.7021625 5.31085986328125 1.7051625 L 5.31085986328125 1.9114125 Q 5.31085986328125 1.9369125 5.31648486328125 1.9481625 Q 5.32210986328125 1.9594125 5.33560986328125 1.9594125 Q 5.347609863281249 1.9594125 5.3723598632812495 1.9489125 L 5.3731098632812495 1.9489125 M 5.623991821289063 1.7077875 Q 5.638991821289062 1.7179125 5.638991821289062 1.7321625 Q 5.638991821289062 1.7434125 5.631491821289062 1.7512874999999999 Q 5.623991821289063 1.7591625 5.611241821289062 1.7591625 Q 5.603741821289062 1.7591625 5.598491821289063 1.7565374999999999 Q 5.593241821289062 1.7539125 5.589491821289062 1.7505375 Q 5.585741821289062 1.7471625 5.584241821289062 1.7464125 Q 5.578241821289063 1.7404125 5.5726168212890625 1.7370375 Q 5.566991821289062 1.7336624999999999 5.558741821289062 1.7336624999999999 Q 5.549741821289063 1.7336624999999999 5.539241821289062 1.7407875 Q 5.528741821289063 1.7479125 5.507741821289063 1.7719125 L 5.507741821289063 1.9331625 Q 5.507741821289063 1.9549125 5.513366821289062 1.9657875 Q 5.518991821289062 1.9766625 5.533991821289062 1.9807875 Q 5.5489918212890625 1.9849125 5.578991821289062 1.9849125 Q 5.581241821289062 1.9849125 5.581241821289062 1.9894125 Q 5.581241821289062 1.9939125 5.578991821289062 1.9939125 Q 5.554241821289063 1.9939125 5.539241821289062 1.9931625 L 5.482241821289063 1.9924125 L 5.440241821289062 1.9931625 Q 5.4297418212890625 1.9939125 5.411741821289063 1.9939125 Q 5.409491821289063 1.9939125 5.409491821289063 1.9894125 Q 5.409491821289063 1.9849125 5.411741821289063 1.9849125 Q 5.438741821289062 1.9849125 5.447366821289062 1.9747875 Q 5.455991821289063 1.9646625 5.455991821289063 1.9331625 L 5.455991821289063 1.7869125 Q 5.455991821289063 1.7621625 5.450366821289062 1.7512874999999999 Q 5.444741821289062 1.7404125 5.4312418212890625 1.7404125 Q 5.416991821289062 1.7404125 5.391491821289062 1.7509125 L 5.389991821289063 1.7509125 Q 5.387741821289063 1.7509125 5.386616821289063 1.7471625 Q 5.385491821289063 1.7434125 5.387741821289063 1.7426625 L 5.480741821289063 1.6984124999999999 Q 5.482241821289063 1.6976624999999999 5.485241821289062 1.6976624999999999 Q 5.492741821289062 1.6976624999999999 5.4998668212890625 1.7141625 Q 5.506991821289063 1.7306625 5.507741821289063 1.7576625 Q 5.538491821289062 1.7231625 5.556866821289062 1.7104125 Q 5.575241821289063 1.6976624999999999 5.591741821289062 1.6976624999999999 Q 5.608991821289062 1.6976624999999999 5.623991821289063 1.7077875 M 6.525512329101563 1.5296625 Q 6.525512329101563 1.5341624999999999 6.523262329101563 1.5341624999999999 Q 6.496262329101563 1.5341624999999999 6.474137329101563 1.5510375 Q 6.452012329101563 1.5679125 6.442262329101562 1.6024125 L 6.329762329101563 1.9931625 Q 6.329762329101563 1.9961625 6.321512329101562 1.9961625 Q 6.314012329101562 1.9961625 6.313262329101563 1.9931625 L 6.169262329101563 1.6189125 L 6.055262329101563 1.9931625 Q 6.055262329101563 1.9961625 6.0470123291015625 1.9961625 Q 6.040262329101562 1.9961625 6.038012329101562 1.9931625 L 5.896262329101562 1.5874125 Q 5.885762329101563 1.5566624999999998 5.871887329101562 1.5454124999999999 Q 5.858012329101562 1.5341624999999999 5.8347623291015625 1.5341624999999999 Q 5.832512329101562 1.5341624999999999 5.832512329101562 1.5296625 Q 5.832512329101562 1.5251625 5.8347623291015625 1.5251625 L 5.858012329101562 1.5259125 Q 5.877512329101562 1.5274125 5.894762329101562 1.5274125 Q 5.937512329101563 1.5274125 5.9780123291015625 1.5259125 Q 5.990012329101562 1.5251625 6.008012329101563 1.5251625 Q 6.010262329101562 1.5251625 6.010262329101562 1.5296625 Q 6.010262329101562 1.5341624999999999 6.008012329101563 1.5341624999999999 Q 5.956262329101563 1.5341624999999999 5.956262329101563 1.5671625 Q 5.956262329101563 1.5761625 5.960762329101563 1.5896625 L 6.066512329101562 1.8926625 L 6.179012329101562 1.5251625 Q 6.180512329101562 1.5229125 6.1880123291015625 1.5229125 Q 6.195512329101563 1.5229125 6.196262329101563 1.5251625 L 6.338762329101563 1.8964125 L 6.4227623291015625 1.6024125 Q 6.426512329101563 1.5874125 6.426512329101563 1.5784125 Q 6.426512329101563 1.5341624999999999 6.359762329101563 1.5341624999999999 Q 6.358262329101563 1.5341624999999999 6.358262329101563 1.5296625 Q 6.358262329101563 1.5251625 6.359762329101563 1.5251625 L 6.3995123291015625 1.5259125 Q 6.432512329101563 1.5274125 6.457262329101562 1.5274125 Q 6.471512329101563 1.5274125 6.4925123291015625 1.5259125 L 6.523262329101563 1.5251625 Q 6.525512329101563 1.5251625 6.525512329101563 1.5296625 M 6.829622314453125 1.9481625 Q 6.831872314453125 1.9481625 6.832997314453125 1.9519125 Q 6.834122314453125 1.9556625 6.831872314453125 1.9564124999999999 L 6.739622314453125 2.0014125 Q 6.738122314453125 2.0021625 6.735872314453125 2.0021625 Q 6.729872314453125 2.0021625 6.723497314453125 1.9856624999999999 Q 6.717122314453125 1.9691625 6.715622314453125 1.9436625 Q 6.689372314453125 1.9706625 6.662372314453125 1.9864125 Q 6.635372314453125 2.0021625 6.602372314453125 2.0021625 Q 6.555872314453125 2.0021625 6.524372314453125 1.9680374999999999 Q 6.492872314453125 1.9339125 6.492872314453125 1.8724125 Q 6.492872314453125 1.8184125 6.517997314453125 1.7779125 Q 6.543122314453125 1.7374125 6.582497314453125 1.7160375 Q 6.621872314453125 1.6946625 6.663122314453125 1.6946625 Q 6.702872314453125 1.6946625 6.735872314453125 1.7164125 Q 6.750872314453125 1.7089124999999998 6.7591223144531245 1.6969125 Q 6.7598723144531245 1.6961625 6.761372314453125 1.6961625 Q 6.762872314453125 1.6961625 6.764747314453125 1.6972874999999998 Q 6.766622314453125 1.6984124999999999 6.766622314453125 1.6991625 L 6.766622314453125 1.9136625 Q 6.766622314453125 1.9376625 6.772247314453125 1.9481625 Q 6.777872314453125 1.9586625 6.791372314453125 1.9586625 Q 6.801122314453125 1.9586625 6.828122314453125 1.9489125 L 6.829622314453125 1.9481625 M 6.715622314453125 1.9309125 L 6.715622314453125 1.7749125 Q 6.715622314453125 1.7471625 6.694622314453125 1.7284125 Q 6.673622314453125 1.7096624999999999 6.644372314453125 1.7096624999999999 Q 6.602372314453125 1.7096624999999999 6.576872314453125 1.7486625 Q 6.551372314453125 1.7876625 6.551372314453125 1.8491625 Q 6.551372314453125 1.9054125 6.5727473144531245 1.9387874999999999 Q 6.594122314453125 1.9721625 6.631622314453125 1.9721625 Q 6.671372314453125 1.9721625 6.715622314453125 1.9309125 M 7.144989990234375 1.6999125 Q 7.147989990234375 1.7021625 7.147989990234375 1.7051625 L 7.147989990234375 2.0464125 Q 7.147989990234375 2.1176625 7.108614990234375 2.1611625 Q 7.069239990234375 2.2046625 6.994989990234375 2.2046625 Q 6.951489990234375 2.2046625 6.921489990234375 2.1885375 Q 6.891489990234375 2.1724125 6.891489990234375 2.1461625 Q 6.891489990234375 2.1334125 6.899739990234375 2.1262875 Q 6.907989990234375 2.1191625 6.919989990234375 2.1191625 Q 6.932739990234375 2.1191625 6.940989990234375 2.1262875 Q 6.949239990234375 2.1334125 6.958989990234375 2.1476625 Q 6.972489990234375 2.1671625 6.987114990234375 2.1780375 Q 7.001739990234375 2.1889125 7.027989990234375 2.1889125 Q 7.060239990234375 2.1889125 7.078614990234375 2.1622875 Q 7.096989990234375 2.1356625 7.096989990234375 2.0644125 L 7.096989990234375 1.9384124999999999 Q 7.041489990234375 2.0006625 6.979239990234375 2.0006625 Q 6.940239990234375 2.0006625 6.918864990234375 1.9762875 Q 6.897489990234375 1.9519125 6.897489990234375 1.9084125 L 6.897489990234375 1.7951625 Q 6.897489990234375 1.7666625 6.892239990234375 1.7542875 Q 6.886989990234375 1.7419125 6.874989990234375 1.7419125 Q 6.863739990234375 1.7419125 6.850989990234375 1.7479125 L 6.849489990234375 1.7479125 Q 6.847239990234375 1.7479125 6.846114990234375 1.7441625 Q 6.844989990234375 1.7404125 6.847239990234375 1.7396625 L 6.936489990234375 1.6984124999999999 L 6.938739990234375 1.6976624999999999 Q 6.941739990234375 1.6976624999999999 6.945114990234375 1.6999125 Q 6.948489990234375 1.7021625 6.948489990234375 1.7051625 L 6.948489990234375 1.8799124999999999 Q 6.948489990234375 1.9226625 6.963864990234375 1.9432875 Q 6.979239990234375 1.9639125 7.010739990234375 1.9639125 Q 7.032489990234375 1.9639125 7.055364990234375 1.9534125 Q 7.078239990234375 1.9429125 7.096989990234375 1.9241625 L 7.096989990234375 1.7951625 Q 7.096989990234375 1.7666625 7.091739990234375 1.7542875 Q 7.086489990234375 1.7419125 7.074489990234375 1.7419125 Q 7.063989990234375 1.7419125 7.051239990234375 1.7479125 L 7.049739990234375 1.7479125 Q 7.047489990234375 1.7479125 7.046364990234375 1.7441625 Q 7.045239990234375 1.7404125 7.047489990234375 1.7396625 L 7.135989990234375 1.6984124999999999 L 7.138989990234375 1.6976624999999999 Q 7.141989990234375 1.6976624999999999 7.144989990234375 1.6999125" fill="#c84449" fill-rule="nonzero"></path></g></g><defs><clipPath id="SvgjsClipPath1001"><path d=" M -4.582466144954135 -1.0942768224770674 h 4.182466144954135 v 4.182466144954135 h -4.182466144954135 Z"></path></clipPath><clipPath id="SvgjsClipPath1000b8729670-deb1-4e0d-8515-19dda67d23cc"><path d=" M -4.582466144954135 -1.0942768224770674 L -0.40000000000000036 -1.0942768224770674 L -0.40000000000000036 3.088189322477067 L -4.582466144954135 3.088189322477067 Z"></path></clipPath></defs></svg>